# xmcd CD database file
#
# Track frame offsets:
#	150
#	9713
#	12382
#	27611
#	43608
#	57623
#	70877
#	86575
#	103558
#	122814
#	135825
#	157348
#
# Disc length: 2386 seconds
#
# Revision: 0
# Processed by: cddbd v1.5PL3 Copyright (c) Steve Scherf et al.
# Submitted via: CDex 1.50
#
DISCID=a509500c
DTITLE=UMEMOTO - WOODSOFT
DYEAR=2003
DGENRE=Game
TTITLE0=梅本より愛を込めて 〜Put love from Umemoto and 86.
TTITLE1=デイリーオープニング
TTITLE2=タイトル未定
TTITLE3=Pinch
TTITLE4=トリスタン号
TTITLE5=危機
TTITLE6=移動2
TTITLE7=異世界
TTITLE8=Ishtal "DESIRE"
TTITLE9=Magnify Dark
TTITLE10=日記１
TTITLE11=甲野本部長　セクシー中年マンダムver.
EXTD=YEAR: 2003
EXTT0=
EXTT1=
EXTT2=
EXTT3=
EXTT4=
EXTT5=
EXTT6=
EXTT7=
EXTT8=
EXTT9=
EXTT10=
EXTT11=
PLAYORDER=
